HIERARCHY
ROOT Hips
{
    OFFSET 0.000000 0.000000 0.000000
    CHANNELS 6 Xposition Yposition Zposition Zrotation Xrotation Yrotation
    JOINT Spine
    {
        OFFSET -0.000000 7.236184 0.000000
        CHANNELS 3 Zrotation Xrotation Yrotation
        JOINT Spine1
        {
            OFFSET -0.000000 20.420147 0.000000
            CHANNELS 3 Zrotation Xrotation Yrotation
            JOINT Neck
            {
                OFFSET -0.000000 20.336288 1.848754
                CHANNELS 3 Zrotation Xrotation Yrotation
                JOINT Head
                {
                    OFFSET -0.000000 12.354461 -1.764923
                    CHANNELS 3 Zrotation Xrotation Yrotation
                    End Site
                    {
                        OFFSET -0.000000 22.061537 0.000000
                    }
                }
            }
            JOINT LeftShoulder
            {
                OFFSET 3.573296 18.396038 -0.314103
                CHANNELS 3 Zrotation Xrotation Yrotation
                JOINT LeftArm
                {
                    OFFSET 10.880760 0.000000 0.000000
                    CHANNELS 3 Zrotation Xrotation Yrotation
                    JOINT LeftForeArm
                    {
                        OFFSET 27.185530 0.000000 0.000000
                        CHANNELS 3 Zrotation Xrotation Yrotation
                        JOINT LeftHand
                        {
                            OFFSET 27.825975 0.000000 0.000000
                            CHANNELS 3 Zrotation Xrotation Yrotation
                            End Site
                            {
                                OFFSET 13.236923 0.000000 0.000000
                            }
                        }
                    }
                }
            }
            JOINT RightShoulder
            {
                OFFSET -3.474926 18.396038 -0.314103
                CHANNELS 3 Zrotation Xrotation Yrotation
                JOINT RightArm
                {
                    OFFSET -10.880760 0.000000 0.000000
                    CHANNELS 3 Zrotation Xrotation Yrotation
                    JOINT RightForeArm
                    {
                        OFFSET -27.185530 0.000000 0.000000
                        CHANNELS 3 Zrotation Xrotation Yrotation
                        JOINT RightHand
                        {
                            OFFSET -27.825975 0.000000 0.000000
                            CHANNELS 3 Zrotation Xrotation Yrotation
                            End Site
                            {
                                OFFSET -13.236923 0.000000 0.000000
                            }
                        }
                    }
                }
            }
        }
    }
    JOINT LeftUpLeg
    {
        OFFSET 8.824615 0.000000 0.000000
        CHANNELS 3 Zrotation Xrotation Yrotation
        JOINT LeftLeg
        {
            OFFSET -0.000000 -35.111282 0.000000
            CHANNELS 3 Zrotation Xrotation Yrotation
            JOINT LeftFoot
            {
                OFFSET -0.000000 -42.324711 0.000000
                CHANNELS 3 Zrotation Xrotation Yrotation
                JOINT LeftToeBase
                {
                    OFFSET -0.000000 -5.735999 13.236923
                    CHANNELS 3 Zrotation Xrotation Yrotation
                    End Site
                    {
                        OFFSET -0.000000 0.000000 3.529846
                    }
                }
            }
        }
    }
    JOINT RightUpLeg
    {
        OFFSET -8.824615 0.000000 0.000000
        CHANNELS 3 Zrotation Xrotation Yrotation
        JOINT RightLeg
        {
            OFFSET -0.000000 -35.111282 0.000000
            CHANNELS 3 Zrotation Xrotation Yrotation
            JOINT RightFoot
            {
                OFFSET -0.000000 -42.324711 0.000000
                CHANNELS 3 Zrotation Xrotation Yrotation
                JOINT RightToeBase
                {
                    OFFSET -0.000000 -5.735999 13.236923
                    CHANNELS 3 Zrotation Xrotation Yrotation
                    End Site
                    {
                        OFFSET -0.000000 0.000000 3.529846
                    }
                }
            }
        }
    }
}
MOTION
Frames:    9
Frame Time:    0.008333
-6.228612    85.030785    102.722839    -1.732630    -1.559028    -174.212067    -0.790701    -10.869873    2.218503    -0.010318    3.814793    2.294070    0.399910    13.979298    -5.218814    7.006362    -3.084003    -4.257073    9.095405    3.493978    -3.543758    -27.508097    -0.845100    -13.626018    25.457462    -11.754627    -40.861355    -17.394785    -2.008728    -1.071813    -4.451147    6.987108    -5.241260    16.761909    -10.903275    5.439095    -29.846584    -32.900162    93.561073    -12.054058    -1.329818    -1.196909    3.532148    -3.636296    -6.598315    0.426092    11.141233    5.170205    -8.120159    -6.792474    -11.652658    0.105885    -0.966381    -0.117577    -8.535399    3.686078    -8.996067    1.071086    4.887936    -2.195860    4.311363    -5.091467    -12.079082    -1.818451    -0.320032    1.967635    
-6.145350    85.033691    102.755142    -1.677417    -1.555202    -174.490509    -0.935448    -10.865706    1.936765    0.108727    3.757579    2.022149    0.539834    14.216814    -4.883852    6.788340    -3.219284    -3.938868    9.341886    2.894893    -3.931195    -26.898006    -1.716982    -13.888568    26.024206    -13.170070    -42.102249    -16.902561    -2.854314    -1.434456    -4.179047    7.517205    -5.581264    17.262293    -9.041052    4.923876    -29.902813    -32.300621    93.128746    -11.839570    -0.828295    -1.091160    3.635793    -3.621484    -6.489861    0.435638    11.147793    5.346967    -8.141294    -6.791568    -11.673255    0.088887    -0.962452    -0.098702    -8.449553    3.594941    -8.856461    1.075028    4.873565    -2.111033    4.266969    -5.061170    -12.037922    -1.830773    -0.309990    1.980940    
-6.062595    85.036018    102.788376    -1.622600    -1.550249    -174.776993    -1.090837    -10.856505    1.649792    0.238687    3.700677    1.745765    0.675268    14.458570    -4.548769    6.584036    -3.361430    -3.617636    9.561422    2.316395    -4.310763    -26.330374    -2.646370    -14.217301    26.519291    -14.623563    -43.327198    -16.223953    -3.769333    -1.794656    -3.888324    8.031436    -5.902901    17.844896    -7.152143    4.464253    -29.990898    -31.671886    92.584557    -11.749020    -0.330442    -0.920417    3.738272    -3.607071    -6.378098    0.445372    11.160385    5.525967    -8.164629    -6.791977    -11.692095    0.072635    -0.960411    -0.080654    -8.365231    3.502029    -8.706989    1.080087    4.861591    -2.026047    4.222142    -5.030590    -11.998858    -1.843610    -0.300335    1.994803    
-5.981407    85.037598    102.822327    -1.568695    -1.545609    -175.069092    -1.249665    -10.842566    1.362247    0.368931    3.643863    1.469101    0.808898    14.701982    -4.217251    6.396877    -3.511282    -3.296644    9.753769    1.769770    -4.672166    -25.817268    -3.620089    -14.615353    26.932812    -16.093319    -44.530647    -15.359035    -4.745380    -2.135694    -3.579682    8.524919    -6.200835    18.492693    -5.274632    4.062558    -30.103601    -31.015875    91.932243    -11.795140    0.154343    -0.684227    3.838757    -3.593855    -6.265413    0.454359    11.177730    5.706711    -8.189650    -6.793643    -11.708392    0.057186    -0.959842    -0.063500    -8.283541    3.406227    -8.552200    1.085786    4.853139    -1.939153    4.177582    -5.000287    -11.961547    -1.856747    -0.291268    2.008991    
-5.900548    85.038414    102.857674    -1.514803    -1.542568    -175.373154    -1.409419    -10.823886    1.070531    0.492710    3.584951    1.188676    0.947497    14.951550    -3.883601    6.224885    -3.673647    -2.970022    9.924030    1.251194    -5.015899    -25.355608    -4.651611    -15.098159    27.268858    -17.601519    -45.742516    -14.287531    -5.802338    -2.450075    -3.244994    9.005589    -6.478132    19.207142    -3.389971    3.707938    -30.234638    -30.317362    91.160080    -11.987343    0.628772    -0.376767    3.939079    -3.581901    -6.151099    0.461965    11.198645    5.895459    -8.216895    -6.796225    -11.722858    0.042226    -0.960265    -0.046888    -8.203274    3.303784    -8.391369    1.091802    4.848582    -1.847056    4.132787    -4.969458    -11.924197    -1.870463    -0.282921    2.023808    
-5.821358    85.038528    102.893745    -1.461830    -1.541357    -175.686172    -1.563388    -10.800886    0.780542    0.601119    3.524449    0.909842    1.092237    15.205802    -3.552889    6.072556    -3.849701    -2.642195    10.071442    0.774346    -5.334804    -24.956619    -5.722406    -15.666422    27.519033    -19.125307    -46.955967    -13.023126    -6.929345    -2.717101    -2.887181    9.470850    -6.731085    19.968969    -1.543527    3.403753    -30.369215    -29.578508    90.281860    -12.325469    1.079632    -0.002321    4.037813    -3.570211    -6.038179    0.467421    11.221091    6.092058    -8.245297    -6.799457    -11.734837    0.027900    -0.961102    -0.030980    -8.125719    3.195966    -8.226700    1.097847    4.847631    -1.751121    4.088481    -4.938257    -11.886125    -1.884394    -0.275698    2.038861    
-5.744048    85.038223    102.930244    -1.410006    -1.541822    -176.009384    -1.708293    -10.774179    0.494430    0.689503    3.462579    0.634660    1.245075    15.466556    -3.226162    5.941710    -4.042078    -2.313654    10.196149    0.341704    -5.630886    -24.622400    -6.823108    -16.322403    27.683832    -20.664482    -48.180794    -11.571746    -8.128564    -2.920348    -2.506304    9.923192    -6.961414    20.768774    0.246809    3.146021    -30.489780    -28.791672    89.308212    -12.804463    1.501372    0.435527    4.134583    -3.557068    -5.927287    0.470789    11.243274    6.298566    -8.274901    -6.803052    -11.744519    0.014109    -0.962848    -0.015667    -8.051137    3.083158    -8.057039    1.104012    4.849640    -1.652116    4.044634    -4.906378    -11.846531    -1.898603    -0.269450    2.054216    
-5.668134    85.037743    102.967117    -1.359023    -1.543679    -176.346451    -1.843120    -10.745149    0.211910    0.756299    3.400737    0.362971    1.408244    15.736889    -2.901946    5.832324    -4.253879    -1.982570    10.297637    -0.046142    -5.909492    -24.352417    -7.953321    -17.075630    27.766678    -22.232843    -49.435215    -9.930945    -9.411501    -3.044387    -2.100693    10.367937    -7.172837    21.606030    1.980266    2.928283    -30.579815    -27.945410    88.241402    -13.419919    1.889802    0.934560    4.230060    -3.540824    -5.816960    0.472200    11.263988    6.516817    -8.305608    -6.806988    -11.751623    0.000503    -0.964875    -0.000559    -7.978899    2.965357    -7.879403    1.110379    4.853375    -1.550529    4.001033    -4.873096    -11.804359    -1.913122    -0.264381    2.069911    
-5.594069    85.037315    103.003868    -1.309020    -1.547363    -176.695786    -1.966292    -10.716547    -0.062888    0.801790    3.341440    0.098242    1.579484    16.016014    -2.583830    5.747132    -4.484509    -1.652013    10.372184    -0.385047    -6.175110    -24.149725    -9.094646    -17.922276    27.768829    -23.822323    -50.721642    -8.123544    -10.770063    -3.069432    -1.676306    10.803534    -7.367722    22.471062    3.635177    2.746907    -30.622244    -27.043030    87.097649    -14.155924    2.233644    1.483596    4.323895    -3.521158    -5.706955    0.471652    11.282192    6.744611    -8.336797    -6.811384    -11.755714    -0.013040    -0.967390    0.014479    -7.908973    2.843597    -7.692476    1.116924    4.857620    -1.448958    3.958103    -4.838432    -11.759917    -1.927881    -0.260651    2.085868    
